<?xml version="1.0" encoding="UTF-8"?>
<svg xmlns="http://www.w3.org/2000/svg" viewBox="0 0 2100 1180" font-family="'PingFang SC','Hiragino Sans GB',sans-serif">
  <title>Copilot Telegram Bridge 架构</title>
  <desc>~/.copilot/extensions/copilot-telegram-bridge — Telegram 与 Copilot CLI 双向桥</desc>
  <style>text { font-variant-ligatures: none; }</style>
  <defs>
    <radialGradient id="gradBg" cx="0.5" cy="0.28" r="1.05">
      <stop offset="0" stop-color="#141b29"/><stop offset="0.55" stop-color="#0e131d"/><stop offset="1" stop-color="#090c12"/>
    </radialGradient>
    <linearGradient id="gradTitle" x1="0" y1="0" x2="1" y2="0">
      <stop offset="0" stop-color="#60a5fa"><animate attributeName="stop-color" values="#60a5fa;#22d3ee;#a78bfa;#60a5fa" dur="8s" repeatCount="indefinite"/></stop>
      <stop offset="0.5" stop-color="#22d3ee"><animate attributeName="stop-color" values="#22d3ee;#a78bfa;#e879f9;#22d3ee" dur="8s" repeatCount="indefinite"/></stop>
      <stop offset="1" stop-color="#a78bfa"><animate attributeName="stop-color" values="#a78bfa;#e879f9;#60a5fa;#a78bfa" dur="8s" repeatCount="indefinite"/></stop>
    </linearGradient>
    <linearGradient id="gradCard" x1="0" y1="0" x2="0" y2="1">
      <stop offset="0" stop-color="#171e2b"/><stop offset="1" stop-color="#12161f"/>
    </linearGradient>
    <pattern id="grid" width="36" height="36" patternUnits="userSpaceOnUse">
      <circle cx="1.5" cy="1.5" r="1.1" fill="#ffffff" opacity="0.045"/>
    </pattern>
    <filter id="fCard" x="-20%" y="-20%" width="140%" height="140%">
      <feGaussianBlur in="SourceAlpha" stdDeviation="8" result="blur"/>
      <feOffset in="blur" dx="0" dy="5" result="off"/>
      <feComponentTransfer in="off" result="shadow"><feFuncA type="linear" slope="0.45"/></feComponentTransfer>
      <feMerge><feMergeNode in="shadow"/><feMergeNode in="SourceGraphic"/></feMerge>
    </filter>
    <filter id="fGlow" x="-250%" y="-250%" width="600%" height="600%">
      <feGaussianBlur stdDeviation="4.5" result="b"/>
      <feMerge><feMergeNode in="b"/><feMergeNode in="SourceGraphic"/></feMerge>
    </filter>
<marker id="mGray" viewBox="0 0 10 10" refX="8" refY="5" markerWidth="7" markerHeight="7" orient="auto-start-reverse"><path d="M0 0L10 5L0 10z" fill="#8fa0bd"/></marker><marker id="mBlue" viewBox="0 0 10 10" refX="8" refY="5" markerWidth="7" markerHeight="7" orient="auto-start-reverse"><path d="M0 0L10 5L0 10z" fill="#60a5fa"/></marker><marker id="mViolet" viewBox="0 0 10 10" refX="8" refY="5" markerWidth="7" markerHeight="7" orient="auto-start-reverse"><path d="M0 0L10 5L0 10z" fill="#a78bfa"/></marker><marker id="mCyan" viewBox="0 0 10 10" refX="8" refY="5" markerWidth="7" markerHeight="7" orient="auto-start-reverse"><path d="M0 0L10 5L0 10z" fill="#22d3ee"/></marker><marker id="mPink" viewBox="0 0 10 10" refX="8" refY="5" markerWidth="7" markerHeight="7" orient="auto-start-reverse"><path d="M0 0L10 5L0 10z" fill="#e879f9"/></marker><marker id="mAmber" viewBox="0 0 10 10" refX="8" refY="5" markerWidth="7" markerHeight="7" orient="auto-start-reverse"><path d="M0 0L10 5L0 10z" fill="#fbbf24"/></marker><marker id="mGreen" viewBox="0 0 10 10" refX="8" refY="5" markerWidth="7" markerHeight="7" orient="auto-start-reverse"><path d="M0 0L10 5L0 10z" fill="#34d399"/></marker><marker id="mGold" viewBox="0 0 10 10" refX="8" refY="5" markerWidth="7" markerHeight="7" orient="auto-start-reverse"><path d="M0 0L10 5L0 10z" fill="#eab308"/></marker><marker id="mTeal" viewBox="0 0 10 10" refX="8" refY="5" markerWidth="7" markerHeight="7" orient="auto-start-reverse"><path d="M0 0L10 5L0 10z" fill="#2dd4bf"/></marker><marker id="mPurple" viewBox="0 0 10 10" refX="8" refY="5" markerWidth="7" markerHeight="7" orient="auto-start-reverse"><path d="M0 0L10 5L0 10z" fill="#8b5cf6"/></marker>
  </defs>
  <rect width="2100" height="1180" fill="url(#gradBg)"/>
  <rect width="2100" height="1180" fill="url(#grid)"/>

<g opacity="0"><animate attributeName="opacity" to="1" begin="0.0s" dur="0.5s" fill="freeze"/><animateTransform attributeName="transform" type="translate" from="0 14" to="0 0" begin="0.0s" dur="0.5s" fill="freeze"/><g transform="translate(668 28) scale(1.15)"><g stroke="#22d3ee" stroke-width="1.6" stroke-linecap="round"><path d="M11 1 L11 21 M1 11 L21 11"/><path d="M5 5 L17 17 M5 17 L17 5" stroke-width="1.1"/><circle cx="11" cy="11" r="2" fill="#22d3ee" stroke="none"/></g></g><text x="1050" y="50" text-anchor="middle" font-size="32" font-weight="700" letter-spacing="1.5" fill="url(#gradTitle)">Copilot Telegram Bridge</text><text x="1050" y="80" text-anchor="middle" font-size="13.5" letter-spacing="1.2" fill="#8b96a5">~/.copilot/extensions/copilot-telegram-bridge  ·  手机发消息 → 本机 Agent 执行 → Telegram 回落</text><rect x="930" y="96" width="240" height="3" rx="1.5" fill="url(#gradTitle)"><animate attributeName="opacity" values="0.4;0.95;0.4" dur="3s" repeatCount="indefinite"/></rect></g>
<g opacity="0"><animate attributeName="opacity" to="1" begin="0.2s" dur="0.5s" fill="freeze"/><rect x="80" y="38" width="280" height="28" rx="14.0" fill="#151c28" stroke="#2b3648"/><text x="220.0" y="57.0" text-anchor="middle" font-size="11" font-weight="400" letter-spacing="1" fill="#7fb5fb">Copilot CLI 用户扩展 · 非 Projects</text><rect x="1640" y="38" width="380" height="28" rx="14.0" fill="#151c28" stroke="#2b3648"/><text x="1830.0" y="57.0" text-anchor="middle" font-size="11" font-weight="400" letter-spacing="1" fill="#c4b5fd">AmazingDraw/copilot-telegram-bridge</text></g>
<g opacity="0"><animate attributeName="opacity" to="1" begin="0.15s" dur="0.5s" fill="freeze"/><rect x="80" y="128" width="220" height="28" rx="14.0" fill="#151c28" stroke="#2b3648"/><text x="190.0" y="147.0" text-anchor="middle" font-size="13" font-weight="700" letter-spacing="1" fill="#b8c4d6">① 入口 · 两端与通道</text></g>
<g opacity="0"><animate attributeName="opacity" to="1" begin="0.25s" dur="0.5s" fill="freeze"/><animateTransform attributeName="transform" type="translate" from="0 14" to="0 0" begin="0.25s" dur="0.5s" fill="freeze"/><rect x="80" y="172" width="430" height="118" rx="14" fill="url(#gradCard)" stroke="#60a5fa" stroke-opacity="0.6" stroke-width="1.5" filter="url(#fCard)"/><rect x="80" y="184" width="5" height="94" rx="2.5" fill="#60a5fa"/><g transform="translate(108 196) scale(1.05)"><rect x="4" y="0" width="14" height="22" rx="3" fill="none" stroke="#60a5fa" stroke-width="1.7"/><circle cx="11" cy="18.5" r="1.3" fill="#60a5fa"/><path d="M7 3.5 L15 3.5" stroke="#60a5fa" stroke-width="1.3" stroke-linecap="round"/></g><text x="142" y="214" font-size="16" font-weight="700" fill="#eef2f8">Telegram 用户</text><text x="108" y="240" font-size="11" fill="#60a5fa" font-family="'SF Mono','JetBrains Mono',Menlo,monospace">手机 / 桌面客户端</text><text x="108" y="263" font-size="10.5" fill="#8b96a5">发消息 · 点按钮 · 回权限 / ask_user</text></g>
<g opacity="0"><animate attributeName="opacity" to="1" begin="0.35s" dur="0.5s" fill="freeze"/><animateTransform attributeName="transform" type="translate" from="0 14" to="0 0" begin="0.35s" dur="0.5s" fill="freeze"/><rect x="560" y="172" width="430" height="118" rx="14" fill="url(#gradCard)" stroke="#22d3ee" stroke-opacity="0.6" stroke-width="1.5" filter="url(#fCard)"/><rect x="560" y="184" width="5" height="94" rx="2.5" fill="#22d3ee"/><g transform="translate(588 196) scale(1.05)"><g fill="none" stroke="#22d3ee" stroke-width="1.6"><rect width="9" height="9" rx="2"/><rect x="12" width="9" height="9" rx="2"/><rect y="12" width="9" height="9" rx="2"/><rect x="12" y="12" width="9" height="9" rx="2" fill="#22d3ee" fill-opacity="0.25"/></g></g><text x="622" y="214" font-size="16" font-weight="700" fill="#eef2f8">Telegram Bot API</text><text x="588" y="240" font-size="11" fill="#22d3ee" font-family="'SF Mono','JetBrains Mono',Menlo,monospace">api.telegram.org · long poll</text><text x="588" y="263" font-size="10.5" fill="#8b96a5">启动前 deleteWebhook · 避免 409 空转</text></g>
<g opacity="0"><animate attributeName="opacity" to="1" begin="0.45s" dur="0.5s" fill="freeze"/><animateTransform attributeName="transform" type="translate" from="0 14" to="0 0" begin="0.45s" dur="0.5s" fill="freeze"/><rect x="1040" y="172" width="430" height="118" rx="14" fill="url(#gradCard)" stroke="#34d399" stroke-opacity="0.6" stroke-width="1.5" filter="url(#fCard)"/><rect x="1040" y="184" width="5" height="94" rx="2.5" fill="#34d399"/><g transform="translate(1068 196) scale(1.05)"><g fill="none" stroke="#34d399" stroke-width="1.7"><rect x="1" y="3" width="20" height="16" rx="2.5"/><path d="M1 8 L21 8"/><circle cx="5" cy="5.5" r="1" fill="#34d399" stroke="none"/><circle cx="8.5" cy="5.5" r="1" fill="#34d399" stroke="none"/></g></g><text x="1102" y="214" font-size="16" font-weight="700" fill="#eef2f8">Copilot App 桌面</text><text x="1068" y="240" font-size="11" fill="#34d399" font-family="'SF Mono','JetBrains Mono',Menlo,monospace">joinSession · 当前会话</text><text x="1068" y="263" font-size="10.5" fill="#8b96a5">Editor Bot 挂载 · 模型来自桌面会话</text></g>
<g opacity="0"><animate attributeName="opacity" to="1" begin="0.55s" dur="0.5s" fill="freeze"/><animateTransform attributeName="transform" type="translate" from="0 14" to="0 0" begin="0.55s" dur="0.5s" fill="freeze"/><rect x="1520" y="172" width="500" height="118" rx="14" fill="url(#gradCard)" stroke="#fbbf24" stroke-opacity="0.6" stroke-width="1.5" filter="url(#fCard)"/><rect x="1520" y="184" width="5" height="94" rx="2.5" fill="#fbbf24"/><g transform="translate(1548 196) scale(1.05)"><g fill="none" stroke="#fbbf24" stroke-width="1.7"><rect y="8" width="16" height="12" rx="2.5"/><path d="M4 8 L4 5.5 a4 4 0 0 1 8 0 L12 8"/></g></g><text x="1582" y="214" font-size="16" font-weight="700" fill="#eef2f8">配对 · 访问控制</text><text x="1548" y="240" font-size="11" fill="#fbbf24" font-family="'SF Mono','JetBrains Mono',Menlo,monospace">config/access.json · 6 位码</text><text x="1548" y="263" font-size="10.5" fill="#8b96a5">热加载授权 user id · token 明文不进 Git</text></g>
<g opacity="0"><animate attributeName="opacity" to="1" begin="0.5s" dur="0.5s" fill="freeze"/><rect x="80" y="316" width="280" height="28" rx="14.0" fill="#151c28" stroke="#2b3648"/><text x="220.0" y="335.0" text-anchor="middle" font-size="13" font-weight="700" letter-spacing="1" fill="#b8c4d6">② 装配中心 · extension.mjs</text></g>
<g opacity="0"><animate attributeName="opacity" to="1" begin="0.6s" dur="0.5s" fill="freeze"/><animateTransform attributeName="transform" type="translate" from="0 14" to="0 0" begin="0.6s" dur="0.5s" fill="freeze"/><rect x="80" y="360" width="1940" height="112" rx="16" fill="#141b27" stroke="#2b3648" filter="url(#fCard)"/><text x="104" y="386" font-size="12" font-weight="700" fill="#8b96a5" letter-spacing="1">createBotInstance(name, token, isHeadless)  ·  单文件加载 · 逻辑在 lib/*</text><rect x="104" y="404" width="280" height="48" rx="10" fill="#1c2433" stroke="#60a5fa" stroke-opacity="0.45"/><circle cx="126" cy="428" r="12" fill="#60a5fa" fill-opacity="0.15" stroke="#60a5fa"/><text x="126" y="433" text-anchor="middle" font-size="12" font-weight="700" fill="#60a5fa">1</text><text x="252" y="424" text-anchor="middle" font-size="13" font-weight="700" fill="#eef2f8">构造 ctx</text><text x="252" y="442" text-anchor="middle" font-size="10" fill="#60a5fa">getter 防闭包 stale</text><rect x="414" y="404" width="280" height="48" rx="10" fill="#1c2433" stroke="#22d3ee" stroke-opacity="0.45"/><circle cx="436" cy="428" r="12" fill="#22d3ee" fill-opacity="0.15" stroke="#22d3ee"/><text x="436" y="433" text-anchor="middle" font-size="12" font-weight="700" fill="#22d3ee">2</text><text x="562" y="424" text-anchor="middle" font-size="13" font-weight="700" fill="#eef2f8">attachRuntime</text><text x="562" y="442" text-anchor="middle" font-size="10" fill="#22d3ee">queue / typing / bubble / poll</text><rect x="724" y="404" width="280" height="48" rx="10" fill="#1c2433" stroke="#fbbf24" stroke-opacity="0.45"/><circle cx="746" cy="428" r="12" fill="#fbbf24" fill-opacity="0.15" stroke="#fbbf24"/><text x="746" y="433" text-anchor="middle" font-size="12" font-weight="700" fill="#fbbf24">3</text><text x="872" y="424" text-anchor="middle" font-size="13" font-weight="700" fill="#eef2f8">access + pairing</text><text x="872" y="442" text-anchor="middle" font-size="10" fill="#fbbf24">仍在主文件</text><rect x="1034" y="404" width="280" height="48" rx="10" fill="#1c2433" stroke="#a78bfa" stroke-opacity="0.45"/><circle cx="1056" cy="428" r="12" fill="#a78bfa" fill-opacity="0.15" stroke="#a78bfa"/><text x="1056" y="433" text-anchor="middle" font-size="12" font-weight="700" fill="#a78bfa">4</text><text x="1182" y="424" text-anchor="middle" font-size="13" font-weight="700" fill="#eef2f8">attachHandlers</text><text x="1182" y="442" text-anchor="middle" font-size="10" fill="#a78bfa">session 事件 · 权限 · ask</text><rect x="1344" y="404" width="280" height="48" rx="10" fill="#1c2433" stroke="#e879f9" stroke-opacity="0.45"/><circle cx="1366" cy="428" r="12" fill="#e879f9" fill-opacity="0.15" stroke="#e879f9"/><text x="1366" y="433" text-anchor="middle" font-size="12" font-weight="700" fill="#e879f9">5</text><text x="1492" y="424" text-anchor="middle" font-size="13" font-weight="700" fill="#eef2f8">attachCommands</text><text x="1492" y="442" text-anchor="middle" font-size="10" fill="#e879f9">slash + callback + /codex</text><rect x="1654" y="404" width="330" height="48" rx="10" fill="#1c2433" stroke="#34d399" stroke-opacity="0.45"/><circle cx="1676" cy="428" r="12" fill="#34d399" fill-opacity="0.15" stroke="#34d399"/><text x="1676" y="433" text-anchor="middle" font-size="12" font-weight="700" fill="#34d399">6</text><text x="1827" y="424" text-anchor="middle" font-size="13" font-weight="700" fill="#eef2f8">start</text><text x="1827" y="442" text-anchor="middle" font-size="10" fill="#34d399">join 桌面 或 headless leader</text></g>
<g opacity="0"><animate attributeName="opacity" to="1" begin="0.7s" dur="0.5s" fill="freeze"/><rect x="80" y="498" width="200" height="28" rx="14.0" fill="#151c28" stroke="#2b3648"/><text x="180.0" y="517.0" text-anchor="middle" font-size="13" font-weight="700" letter-spacing="1" fill="#b8c4d6">③ 三 Bot 角色</text></g>
<g opacity="0"><animate attributeName="opacity" to="1" begin="0.8s" dur="0.5s" fill="freeze"/><animateTransform attributeName="transform" type="translate" from="0 14" to="0 0" begin="0.8s" dur="0.5s" fill="freeze"/><rect x="80" y="542" width="620" height="168" rx="14" fill="url(#gradCard)" stroke="#60a5fa" stroke-opacity="0.6" stroke-width="1.5" filter="url(#fCard)"/><rect x="80" y="554" width="5" height="144" rx="2.5" fill="#60a5fa"/><rect x="560" y="558" width="118" height="22" rx="11" fill="#60a5fa1f" stroke="#60a5fa" stroke-opacity="0.4"/><text x="619" y="573" text-anchor="middle" font-size="11" fill="#60a5fa">editor</text><g transform="translate(112 562) scale(1.0)"><g fill="none" stroke="#60a5fa" stroke-width="1.7"><rect x="1" y="3" width="20" height="16" rx="2.5"/><path d="M1 8 L21 8"/><circle cx="5" cy="5.5" r="1" fill="#60a5fa" stroke="none"/><circle cx="8.5" cy="5.5" r="1" fill="#60a5fa" stroke="none"/></g></g><text x="146" y="580" font-size="20" font-weight="700" fill="#eef2f8">Copilot</text><text x="112" y="608" font-size="12" fill="#60a5fa" font-family="'SF Mono','JetBrains Mono',Menlo,monospace">joinSession · lock handoff</text><text x="112" y="634" font-size="12" fill="#8b96a5">挂当前 App 会话 · 不单独 create</text><text x="112" y="656" font-size="12" fill="#8b96a5">模型列表 = 桌面自带 · 不读 models.json</text><text x="112" y="678" font-size="12" fill="#8b96a5">headless-only 时 daemon 跳过 editor</text><text x="112" y="698" font-size="11" fill="#67748a">bots/Copilot/lock.json · state.json</text></g>
<g opacity="0"><animate attributeName="opacity" to="1" begin="0.9s" dur="0.5s" fill="freeze"/><animateTransform attributeName="transform" type="translate" from="0 14" to="0 0" begin="0.9s" dur="0.5s" fill="freeze"/><rect x="740" y="542" width="620" height="168" rx="14" fill="url(#gradCard)" stroke="#a78bfa" stroke-opacity="0.6" stroke-width="1.5" filter="url(#fCard)"/><rect x="740" y="554" width="5" height="144" rx="2.5" fill="#a78bfa"/><rect x="1218" y="558" width="118" height="22" rx="11" fill="#a78bfa22" stroke="#a78bfa" stroke-opacity="0.5"/><text x="1277" y="573" text-anchor="middle" font-size="11" fill="#c4b5fd">★ 无头主 bot</text><g transform="translate(772 562) scale(1.0)"><g fill="none" stroke="#a78bfa" stroke-width="1.7" transform="translate(11 11)"><circle r="6.5"/><circle r="2.4"/><path d="M0 -10 L0 -7.5 M0 7.5 L0 10 M-10 0 L-7.5 0 M7.5 0 L10 0 M-7 -7 L-5.3 -5.3 M7 7 L5.3 5.3 M7 -7 L5.3 -5.3 M-7 7 L-5.3 5.3" stroke-linecap="round"/></g></g><text x="806" y="580" font-size="20" font-weight="700" fill="#eef2f8">Headless</text><text x="772" y="608" font-size="12" fill="#c4b5fd" font-family="'SF Mono','JetBrains Mono',Menlo,monospace">create / resume · LaunchAgent</text><text x="772" y="634" font-size="12" fill="#8b96a5">BYOK + 用户 MCP · allow-all</text><text x="772" y="656" font-size="12" fill="#8b96a5">默认上游 OpenCodex :10100 · sticky session</text><text x="772" y="678" font-size="12" fill="#8b96a5">KeepAlive 守护 · 不依赖桌面 App 打开</text><text x="772" y="698" font-size="11" fill="#67748a">bots/Headless/leader · daemon.log · pid</text><circle cx="1330" cy="626" r="10" fill="none" stroke="#a78bfa" stroke-width="1.5"><animate attributeName="r" values="10;40" dur="2.2s" begin="0s" repeatCount="indefinite"/><animate attributeName="opacity" values="0.55;0" dur="2.2s" begin="0s" repeatCount="indefinite"/></circle><circle cx="1330" cy="626" r="10" fill="none" stroke="#a78bfa" stroke-width="1.5"><animate attributeName="r" values="10;40" dur="2.2s" begin="1.1s" repeatCount="indefinite"/><animate attributeName="opacity" values="0.55;0" dur="2.2s" begin="1.1s" repeatCount="indefinite"/></circle><circle cx="1330" cy="626" r="6" fill="#a78bfa"><animate attributeName="opacity" values="1;0.4;1" dur="1.6s" repeatCount="indefinite"/></circle></g>
<g opacity="0"><animate attributeName="opacity" to="1" begin="1.0s" dur="0.5s" fill="freeze"/><animateTransform attributeName="transform" type="translate" from="0 14" to="0 0" begin="1.0s" dur="0.5s" fill="freeze"/><rect x="1400" y="542" width="620" height="168" rx="14" fill="url(#gradCard)" stroke="#e879f9" stroke-opacity="0.6" stroke-width="1.5" filter="url(#fCard)"/><rect x="1400" y="554" width="5" height="144" rx="2.5" fill="#e879f9"/><rect x="1878" y="558" width="118" height="22" rx="11" fill="#e879f91f" stroke="#e879f9" stroke-opacity="0.4"/><text x="1937" y="573" text-anchor="middle" font-size="11" fill="#f0abfc">专用无头</text><g transform="translate(1432 562) scale(1.0)"><g stroke="#e879f9" stroke-width="1.6" stroke-linecap="round"><path d="M11 1 L11 21 M1 11 L21 11"/><path d="M5 5 L17 17 M5 17 L17 5" stroke-width="1.1"/><circle cx="11" cy="11" r="2" fill="#e879f9" stroke="none"/></g></g><text x="1466" y="580" font-size="20" font-weight="700" fill="#eef2f8">SecondaryBot</text><text x="1432" y="608" font-size="12" fill="#f0abfc" font-family="'SF Mono','JetBrains Mono',Menlo,monospace">open-group · deny-all</text><text x="1432" y="634" font-size="12" fill="#8b96a5">提示词反推专用 · 不加载用户 MCP</text><text x="1432" y="656" font-size="12" fill="#8b96a5">模型锁 · modelSet 引用</text><text x="1432" y="678" font-size="12" fill="#8b96a5">人设真源 agent-memory/prompt-reverse.md</text><text x="1432" y="698" font-size="11" fill="#67748a">bots/SecondaryBot/lock · state · leader</text></g>
<g opacity="0"><animate attributeName="opacity" to="1" begin="1.05s" dur="0.5s" fill="freeze"/><rect x="80" y="736" width="220" height="28" rx="14.0" fill="#151c28" stroke="#2b3648"/><text x="190.0" y="755.0" text-anchor="middle" font-size="13" font-weight="700" letter-spacing="1" fill="#b8c4d6">④ 共享模块 · lib/*</text></g>
<g opacity="0"><animate attributeName="opacity" to="1" begin="1.15s" dur="0.5s" fill="freeze"/><animateTransform attributeName="transform" type="translate" from="0 14" to="0 0" begin="1.15s" dur="0.5s" fill="freeze"/><rect x="80" y="780" width="1940" height="86" rx="14" fill="#10141c" stroke="#26303f" filter="url(#fCard)"/><rect x="100" y="800" width="196" height="46" rx="9" fill="#1c2433" stroke="#60a5fa" stroke-opacity="0.35"/><text x="198" y="820" text-anchor="middle" font-size="11.5" font-weight="700" fill="#eef2f8" font-family="'SF Mono',Menlo,monospace">bot-runtime</text><text x="198" y="836" text-anchor="middle" font-size="10" fill="#8b96a5">poll · queue · typing</text><rect x="308" y="800" width="196" height="46" rx="9" fill="#1c2433" stroke="#a78bfa" stroke-opacity="0.35"/><text x="406" y="820" text-anchor="middle" font-size="11.5" font-weight="700" fill="#eef2f8" font-family="'SF Mono',Menlo,monospace">bot-handlers</text><text x="406" y="836" text-anchor="middle" font-size="10" fill="#8b96a5">事件 → TG · 权限卡</text><rect x="516" y="800" width="196" height="46" rx="9" fill="#1c2433" stroke="#e879f9" stroke-opacity="0.35"/><text x="614" y="820" text-anchor="middle" font-size="11.5" font-weight="700" fill="#eef2f8" font-family="'SF Mono',Menlo,monospace">bot-commands</text><text x="614" y="836" text-anchor="middle" font-size="10" fill="#8b96a5">/session /model /mode</text><rect x="724" y="800" width="196" height="46" rx="9" fill="#1c2433" stroke="#22d3ee" stroke-opacity="0.35"/><text x="822" y="820" text-anchor="middle" font-size="11.5" font-weight="700" fill="#eef2f8" font-family="'SF Mono',Menlo,monospace">bot-profile</text><text x="822" y="836" text-anchor="middle" font-size="10" fill="#8b96a5">role · agentsMd · MCP</text><rect x="932" y="800" width="196" height="46" rx="9" fill="#1c2433" stroke="#34d399" stroke-opacity="0.35"/><text x="1030" y="820" text-anchor="middle" font-size="11.5" font-weight="700" fill="#eef2f8" font-family="'SF Mono',Menlo,monospace">session-fs</text><text x="1030" y="836" text-anchor="middle" font-size="10" fill="#8b96a5">resumable · 空壳清理</text><rect x="1140" y="800" width="196" height="46" rx="9" fill="#1c2433" stroke="#8b5cf6" stroke-opacity="0.35"/><text x="1238" y="820" text-anchor="middle" font-size="11.5" font-weight="700" fill="#eef2f8" font-family="'SF Mono',Menlo,monospace">headless-leader</text><text x="1238" y="836" text-anchor="middle" font-size="10" fill="#8b96a5">单例 · sticky id</text><rect x="1348" y="800" width="196" height="46" rx="9" fill="#1c2433" stroke="#fbbf24" stroke-opacity="0.35"/><text x="1446" y="820" text-anchor="middle" font-size="11.5" font-weight="700" fill="#eef2f8" font-family="'SF Mono',Menlo,monospace">byok-providers</text><text x="1446" y="836" text-anchor="middle" font-size="10" fill="#8b96a5">catalog · modelSets · SessionConfig</text><rect x="1556" y="800" width="196" height="46" rx="9" fill="#1c2433" stroke="#38bdf8" stroke-opacity="0.35"/><text x="1654" y="820" text-anchor="middle" font-size="11.5" font-weight="700" fill="#eef2f8" font-family="'SF Mono',Menlo,monospace">markdown-tg</text><text x="1654" y="836" text-anchor="middle" font-size="10" fill="#8b96a5">chunk · HTML · /rich</text><rect x="1764" y="800" width="232" height="46" rx="9" fill="#1c2433" stroke="#eab308" stroke-opacity="0.35"/><text x="1880" y="820" text-anchor="middle" font-size="11.5" font-weight="700" fill="#eef2f8" font-family="'SF Mono',Menlo,monospace">codex-commands</text><text x="1880" y="836" text-anchor="middle" font-size="10" fill="#8b96a5">/codex 子菜单 · FIFO</text></g>
<g opacity="0"><animate attributeName="opacity" to="1" begin="1.2s" dur="0.5s" fill="freeze"/><rect x="80" y="892" width="280" height="28" rx="14.0" fill="#151c28" stroke="#2b3648"/><text x="220.0" y="911.0" text-anchor="middle" font-size="13" font-weight="700" letter-spacing="1" fill="#b8c4d6">⑤ 上游 · 模型与执行器</text></g>
<g opacity="0"><animate attributeName="opacity" to="1" begin="1.3s" dur="0.5s" fill="freeze"/><animateTransform attributeName="transform" type="translate" from="0 14" to="0 0" begin="1.3s" dur="0.5s" fill="freeze"/><rect x="80" y="936" width="620" height="128" rx="14" fill="url(#gradCard)" stroke="#34d399" stroke-opacity="0.6" stroke-width="1.5" filter="url(#fCard)"/><rect x="80" y="948" width="5" height="104" rx="2.5" fill="#34d399"/><g transform="translate(108 956) scale(1.0)"><g fill="none" stroke="#34d399" stroke-width="1.7"><path d="M0 10 L11 0 L22 10 L11 20 Z" stroke-linejoin="round"/><path d="M0 10 L0 14 L11 24 L22 14 L22 10" stroke-opacity="0.55"/></g></g><text x="142" y="976" font-size="16" font-weight="700" fill="#eef2f8">Copilot SDK</text><text x="108" y="1000" font-size="11.5" fill="#6ee7b7" font-family="'SF Mono',Menlo,monospace">joinSession · CopilotClient</text><text x="108" y="1022" font-size="11" fill="#8b96a5">Editor 走桌面会话模型</text><text x="108" y="1042" font-size="10.5" fill="#67748a">officialFallback · 与 data.db 互不影响</text></g>
<g opacity="0"><animate attributeName="opacity" to="1" begin="1.4s" dur="0.5s" fill="freeze"/><animateTransform attributeName="transform" type="translate" from="0 14" to="0 0" begin="1.4s" dur="0.5s" fill="freeze"/><rect x="740" y="936" width="620" height="128" rx="14" fill="url(#gradCard)" stroke="#a78bfa" stroke-opacity="0.6" stroke-width="1.5" filter="url(#fCard)"/><rect x="740" y="948" width="5" height="104" rx="2.5" fill="#a78bfa"/><rect x="1198" y="948" width="140" height="20" rx="10" fill="#a78bfa22" stroke="#a78bfa" stroke-opacity="0.45"/><text x="1268" y="962" text-anchor="middle" font-size="10.5" fill="#c4b5fd">★ 默认上游</text><g transform="translate(772 956) scale(0.95)"><path d="M13 0 L4 13 L10 13 L8 24 L18 10 L12 10 Z" fill="#a78bfa"/></g><text x="806" y="976" font-size="16" font-weight="700" fill="#eef2f8">OpenCodex</text><text x="772" y="1000" font-size="11.5" fill="#c4b5fd" font-family="'SF Mono',Menlo,monospace">127.0.0.1:10100/v1</text><text x="772" y="1022" font-size="11" fill="#8b96a5">modelSets.headless · apiKeyFromFile</text><text x="772" y="1042" font-size="10.5" fill="#67748a">模型规格只写 catalog · provider 只引用 modelSet</text><circle cx="1050" cy="1000" r="10" fill="none" stroke="#a78bfa" stroke-width="1.5"><animate attributeName="r" values="10;40" dur="2.4s" begin="0s" repeatCount="indefinite"/><animate attributeName="opacity" values="0.55;0" dur="2.4s" begin="0s" repeatCount="indefinite"/></circle><circle cx="1050" cy="1000" r="10" fill="none" stroke="#a78bfa" stroke-width="1.5"><animate attributeName="r" values="10;40" dur="2.4s" begin="1.2s" repeatCount="indefinite"/><animate attributeName="opacity" values="0.55;0" dur="2.4s" begin="1.2s" repeatCount="indefinite"/></circle><circle cx="1050" cy="1000" r="6" fill="#a78bfa"><animate attributeName="opacity" values="1;0.4;1" dur="1.6s" repeatCount="indefinite"/></circle></g>
<g opacity="0"><animate attributeName="opacity" to="1" begin="1.5s" dur="0.5s" fill="freeze"/><animateTransform attributeName="transform" type="translate" from="0 14" to="0 0" begin="1.5s" dur="0.5s" fill="freeze"/><rect x="1400" y="936" width="300" height="128" rx="14" fill="url(#gradCard)" stroke="#fbbf24" stroke-opacity="0.6" stroke-width="1.5" filter="url(#fCard)"/><rect x="1400" y="948" width="5" height="104" rx="2.5" fill="#fbbf24"/><g transform="translate(1428 956) scale(1.0)"><g stroke="#fbbf24" stroke-width="1.7" stroke-linecap="round"><path d="M7 3 L21 3 M7 11 L21 11 M7 19 L21 19"/><circle cx="2" cy="3" r="1.6" fill="#fbbf24" stroke="none"/><circle cx="2" cy="11" r="1.6" fill="#fbbf24" stroke="none"/><circle cx="2" cy="19" r="1.6" fill="#fbbf24" stroke="none"/></g></g><text x="1462" y="976" font-size="16" font-weight="700" fill="#eef2f8">Codex CLI</text><text x="1428" y="1000" font-size="11.5" fill="#fcd34d" font-family="'SF Mono',Menlo,monospace">/codex · ~/.codex</text><text x="1428" y="1022" font-size="11" fill="#8b96a5">新建 / 续接 / FIFO 排队</text><text x="1428" y="1042" font-size="10.5" fill="#67748a">tasks.json · 关桌面端</text></g>
<g opacity="0"><animate attributeName="opacity" to="1" begin="1.6s" dur="0.5s" fill="freeze"/><animateTransform attributeName="transform" type="translate" from="0 14" to="0 0" begin="1.6s" dur="0.5s" fill="freeze"/><rect x="1720" y="936" width="300" height="128" rx="14" fill="url(#gradCard)" stroke="#67748a" stroke-opacity="0.6" stroke-width="1.5" filter="url(#fCard)"/><rect x="1720" y="948" width="5" height="104" rx="2.5" fill="#67748a"/><g transform="translate(1748 956) scale(0.9)"><g fill="none" stroke="#67748a" stroke-width="1.6"><rect x="8" y="0" width="14" height="18" rx="2.5" stroke-opacity="0.45"/><rect x="4" y="3" width="14" height="18" rx="2.5" stroke-opacity="0.7"/><rect x="0" y="6" width="14" height="18" rx="2.5"/></g></g><text x="1782" y="976" font-size="16" font-weight="700" fill="#eef2f8">备用 Provider</text><text x="1748" y="1000" font-size="11.5" fill="#94a3b8" font-family="'SF Mono',Menlo,monospace">cliproxy · opencode</text><text x="1748" y="1022" font-size="11" fill="#8b96a5">provider / catalog enabled</text><text x="1748" y="1042" font-size="10.5" fill="#67748a">默认关 · restart 生效</text></g>
<g opacity="0"><animate attributeName="opacity" to="1" begin="0.7s" dur="0.5s" fill="freeze"/><path d="M 510 231 L 552 231" stroke="#60a5fa" stroke-width="2.2" fill="none" stroke-dasharray="6 6" stroke-linecap="round" stroke-linejoin="round" marker-end="url(#mBlue)"><animate attributeName="stroke-dashoffset" from="12" to="0" dur="0.9s" repeatCount="indefinite"/></path><path d="M 990 231 L 1032 231" stroke="#22d3ee" stroke-width="2.2" fill="none" stroke-dasharray="6 6" stroke-linecap="round" stroke-linejoin="round" marker-end="url(#mCyan)"><animate attributeName="stroke-dashoffset" from="12" to="0" dur="0.9s" repeatCount="indefinite"/></path><path d="M 1470 231 L 1512 231" stroke="#fbbf24" stroke-width="2.2" fill="none" stroke-dasharray="6 6" stroke-linecap="round" stroke-linejoin="round" marker-end="url(#mAmber)"><animate attributeName="stroke-dashoffset" from="12" to="0" dur="0.9s" repeatCount="indefinite"/></path></g>
<g opacity="0"><animate attributeName="opacity" to="1" begin="0.85s" dur="0.5s" fill="freeze"/><path d="M 775 290 L 775 352" stroke="#8fa0bd" stroke-width="2.5" fill="none" stroke-dasharray="5 5" stroke-linecap="round" stroke-linejoin="round" marker-end="url(#mGray)"><animate attributeName="stroke-dashoffset" from="10" to="0" dur="0.9s" repeatCount="indefinite"/></path><path d="M 1255 290 L 1255 352" stroke="#8fa0bd" stroke-width="2.5" fill="none" stroke-dasharray="5 5" stroke-linecap="round" stroke-linejoin="round" marker-end="url(#mGray)"><animate attributeName="stroke-dashoffset" from="10" to="0" dur="0.9s" repeatCount="indefinite"/></path></g>
<g opacity="0"><animate attributeName="opacity" to="1" begin="1.05s" dur="0.5s" fill="freeze"/><path d="M 390 472 L 390 534" stroke="#60a5fa" stroke-width="2.5" fill="none" stroke-dasharray="5 5" stroke-linecap="round" stroke-linejoin="round" marker-end="url(#mBlue)"><animate attributeName="stroke-dashoffset" from="10" to="0" dur="0.9s" repeatCount="indefinite"/></path><path d="M 1050 472 L 1050 534" stroke="#a78bfa" stroke-width="2.6" fill="none" stroke-dasharray="5 5" stroke-linecap="round" stroke-linejoin="round" marker-end="url(#mViolet)"><animate attributeName="stroke-dashoffset" from="10" to="0" dur="0.9s" repeatCount="indefinite"/></path><path d="M 1710 472 L 1710 534" stroke="#e879f9" stroke-width="2.5" fill="none" stroke-dasharray="5 5" stroke-linecap="round" stroke-linejoin="round" marker-end="url(#mPink)"><animate attributeName="stroke-dashoffset" from="10" to="0" dur="0.9s" repeatCount="indefinite"/></path></g>
<g opacity="0"><animate attributeName="opacity" to="1" begin="1.2s" dur="0.5s" fill="freeze"/><path d="M 390 710 L 390 772" stroke="#8fa0bd" stroke-width="2.0" fill="none" stroke-dasharray="5 5" stroke-linecap="round" stroke-linejoin="round" marker-end="url(#mGray)"><animate attributeName="stroke-dashoffset" from="10" to="0" dur="0.9s" repeatCount="indefinite"/></path><path d="M 1050 710 L 1050 772" stroke="#8fa0bd" stroke-width="2.0" fill="none" stroke-dasharray="5 5" stroke-linecap="round" stroke-linejoin="round" marker-end="url(#mGray)"><animate attributeName="stroke-dashoffset" from="10" to="0" dur="0.9s" repeatCount="indefinite"/></path><path d="M 1710 710 L 1710 772" stroke="#8fa0bd" stroke-width="2.0" fill="none" stroke-dasharray="5 5" stroke-linecap="round" stroke-linejoin="round" marker-end="url(#mGray)"><animate attributeName="stroke-dashoffset" from="10" to="0" dur="0.9s" repeatCount="indefinite"/></path></g>
<g opacity="0"><animate attributeName="opacity" to="1" begin="1.35s" dur="0.5s" fill="freeze"/><path d="M 390 866 L 390 928" stroke="#34d399" stroke-width="2.5" fill="none" stroke-dasharray="5 5" stroke-linecap="round" stroke-linejoin="round" marker-end="url(#mGreen)"><animate attributeName="stroke-dashoffset" from="10" to="0" dur="0.9s" repeatCount="indefinite"/></path><path d="M 1050 866 L 1050 928" stroke="#a78bfa" stroke-width="2.6" fill="none" stroke-dasharray="5 5" stroke-linecap="round" stroke-linejoin="round" marker-end="url(#mViolet)"><animate attributeName="stroke-dashoffset" from="10" to="0" dur="0.9s" repeatCount="indefinite"/></path><path d="M 1880 866 L 1880 880 L 1550 880 L 1550 928" stroke="#eab308" stroke-width="2.5" fill="none" stroke-dasharray="5 5" stroke-linecap="round" stroke-linejoin="round" marker-end="url(#mGold)"><animate attributeName="stroke-dashoffset" from="10" to="0" dur="0.9s" repeatCount="indefinite"/></path></g>
<g opacity="0"><animate attributeName="opacity" to="1" begin="1.7s" dur="0.5s" fill="freeze"/><path d="M 80 1000 L 36 1000 L 36 231 L 72 231" stroke="#22d3ee" stroke-width="1.8" fill="none" stroke-dasharray="3 7" stroke-linecap="round" stroke-linejoin="round" marker-end="url(#mCyan)"><animate attributeName="stroke-dashoffset" from="10" to="0" dur="1.1s" repeatCount="indefinite"/></path><text transform="translate(48 620) rotate(-90)" text-anchor="middle" font-size="10.5" fill="#22d3ee">回复 / 工具气泡 / 权限卡</text></g>
<g opacity="0"><animate attributeName="opacity" to="1" begin="1.55s" dur="0.5s" fill="freeze"/><text x="1050" y="882" text-anchor="middle" font-size="10.5" fill="#c4b5fd">onPermissionRequest / user_input.requested  →  Telegram 按钮 resolve Promise</text></g>
<circle cx="295" cy="231" r="4.5" fill="#60a5fa" filter="url(#fGlow)"><animateMotion dur="12s" begin="2.0s" repeatCount="indefinite" path="M 295 231 L 775 231 L 775 416 L 1050 416 L 1050 626 L 1050 823 L 1050 1000"/></circle>
<circle cx="295" cy="231" r="5" fill="#a78bfa" filter="url(#fGlow)"><animateMotion dur="14s" begin="4.2s" repeatCount="indefinite" path="M 295 231 L 775 231 L 775 416 L 1050 416 L 1050 626 L 1050 823 L 1050 1000"/></circle>
<circle cx="80" cy="1000" r="4.5" fill="#22d3ee" filter="url(#fGlow)"><animateMotion dur="10s" begin="5.5s" repeatCount="indefinite" path="M 80 1000 L 36 1000 L 36 231 L 295 231"/></circle>
<circle cx="1880" cy="823" r="4" fill="#eab308" filter="url(#fGlow)"><animateMotion dur="8s" begin="6.8s" repeatCount="indefinite" path="M 1880 823 L 1880 880 L 1550 880 L 1550 1000"/></circle>
<g opacity="0"><animate attributeName="opacity" to="1" begin="1.9s" dur="0.5s" fill="freeze"/><path d="M 80 1098 L 116 1098" stroke="#8fa0bd" stroke-width="2.4"/><text x="126" y="1102" font-size="11" fill="#67748a">装配 / 调用</text><path d="M 240 1098 L 276 1098" stroke="#22d3ee" stroke-width="1.8" stroke-dasharray="3 7"/><text x="286" y="1102" font-size="11" fill="#67748a">回复回路</text><circle cx="420" cy="1098" r="4.5" fill="#a78bfa" filter="url(#fGlow)"/><text x="434" y="1102" font-size="11" fill="#67748a">消息流转</text><text x="560" y="1102" font-size="11" fill="#67748a">config：bots.json · access.json · models.json  ·  会话：~/.copilot/session-state  ·  人设：../agent-memory/</text><text x="1050" y="1138" text-anchor="middle" font-size="10.5" fill="#525d6b">入口 extension.mjs  ·  守护 scripts/headless-daemon.sh  ·  同步 ~/.copilot/extensions/sync-copilot-extensions.sh  ·  仅 Copilot 扩展目录，不含 Projects/cursor-telegram-bridge</text></g>
</svg>
